<?xml version="1.0" standalone="no"?>
<!DOCTYPE svg PUBLIC "-//W3C//DTD SVG 20010904//EN"
 "http://www.w3.org/TR/2001/REC-SVG-20010904/DTD/svg10.dtd">
<svg version="1.0" xmlns="http://www.w3.org/2000/svg"
 width="316.000000pt" height="316.000000pt" viewBox="0 0 316.000000 316.000000"
 preserveAspectRatio="xMidYMid meet">
<metadata>
Created by potrace 1.11, written by Peter Selinger 2001-2013
</metadata>
<g transform="translate(0.000000,316.000000) scale(0.100000,-0.100000)"
fill="#000000" stroke="none">
<path d="M1345 3059 c-171 -30 -286 -69 -450 -151 -258 -131 -479 -342 -622
-594 -137 -242 -190 -434 -200 -719 -4 -136 -2 -179 17 -289 68 -402 273 -747
579 -974 297 -221 620 -323 981 -309 248 9 432 54 635 157 142 73 205 114 315
206 210 176 378 436 468 724 111 354 72 786 -102 1130 -70 138 -99 183 -192
296 -149 181 -343 324 -574 425 -251 108 -580 146 -855 98z m797 -595 c73 -36
134 -69 136 -73 1 -4 -78 -201 -177 -437 -420 -1007 -543 -1299 -550 -1306 -9
-11 -421 241 -421 258 0 20 32 84 43 84 4 0 28 -12 52 -26 l44 -25 25 50 c15
28 26 53 26 55 0 3 -20 17 -45 32 -25 14 -45 27 -45 29 0 15 45 75 55 75 8 0
30 -10 50 -21 20 -12 37 -20 39 -18 12 15 58 101 55 103 -2 2 -23 15 -47 30
l-42 26 20 40 c23 45 33 48 75 20 17 -11 33 -20 37 -20 3 0 16 16 29 36 25 41
30 32 -41 84 -24 18 -24 18 -7 54 20 43 32 44 77 11 l34 -25 23 37 c13 21 23
43 23 49 0 6 -18 20 -40 33 -45 25 -46 30 -25 71 18 35 24 36 67 10 18 -11 36
-20 40 -20 4 0 19 21 34 46 29 50 31 45 -28 81 -16 10 -28 23 -28 31 0 15 28
72 36 72 2 0 22 -9 44 -20 22 -11 43 -20 48 -20 8 0 46 70 40 75 -2 1 -22 12
-45 24 -24 12 -43 24 -43 27 0 3 8 19 17 35 19 32 36 35 73 14 37 -21 48 -18
66 16 17 34 17 34 -38 65 -32 17 -34 27 -10 71 l17 32 44 -19 c55 -25 55 -25
69 5 18 38 16 43 -27 65 l-40 20 16 40 c9 22 20 40 25 40 5 0 26 -9 48 -20
l39 -20 15 22 c24 34 20 46 -24 68 -37 19 -39 22 -29 47 10 26 28 53 35 53 2
0 63 -29 136 -66z m-1263 -616 c28 -40 51 -77 50 -82 0 -6 -81 -76 -180 -156
-98 -79 -179 -149 -179 -155 0 -5 79 -68 175 -139 96 -71 175 -133 175 -138 0
-19 -93 -128 -109 -128 -9 1 -128 58 -266 128 l-250 127 -62 105 c-35 58 -63
111 -63 117 0 13 70 53 92 53 8 0 22 -16 32 -35 11 -19 25 -35 33 -35 18 0 17
7 -12 56 l-25 43 22 12 c13 7 33 19 45 26 20 14 23 12 48 -26 14 -23 32 -41
40 -41 20 0 19 13 -5 52 -27 45 -26 50 20 76 l39 22 27 -35 c33 -44 54 -33 29
15 -9 17 -15 36 -13 41 4 11 258 167 275 168 6 1 34 -31 62 -71z m1844 -55
l257 -127 0 -151 0 -150 -43 -26 c-221 -137 -476 -289 -484 -289 -9 0 -113
141 -113 153 0 3 81 71 179 151 99 80 182 150 185 154 3 5 -76 68 -174 141
-99 73 -180 137 -180 143 0 15 91 128 104 128 6 1 127 -57 269 -127z"/>
<path d="M2790 1640 c-24 -24 -24 -29 -4 -58 18 -27 45 -28 67 -4 22 24 21 45
-1 65 -24 22 -38 21 -62 -3z"/>
<path d="M2782 1454 c-39 -27 -23 -84 24 -84 46 0 59 60 19 86 -18 12 -24 11
-43 -2z"/>
</g>
</svg>
